inDegrees=yes
name=ik_S48_A06_T02
DataType=double
version=3
OpenSimVersion=4.3-2021-08-27-4bc7ad9
endheader
time	pelvis_tilt	pelvis_list	pelvis_rotation	pelvis_tx	pelvis_ty	pelvis_tz	hip_flexion_r	hip_adduction_r	hip_rotation_r	knee_angle_r	knee_angle_r_beta	ankle_angle_r	subtalar_angle_r	mtp_angle_r	hip_flexion_l	hip_adduction_l	hip_rotation_l	knee_angle_l	knee_angle_l_beta	ankle_angle_l	subtalar_angle_l	mtp_angle_l	lumbar_extension	lumbar_bending	lumbar_rotation	arm_flex_r	arm_add_r	arm_rot_r	elbow_flex_r	pro_sup_r	wrist_flex_r	wrist_dev_r	arm_flex_l	arm_add_l	arm_rot_l	elbow_flex_l	pro_sup_l	wrist_flex_l	wrist_dev_l
27.95999999999949	-6.426059643813963	-2.65217625412959	28.62053319227537	0	0.9399999999999999	0	45.34996324990405	-10.20283356201105	-10.46092899819181	52.05127085882479	0.9084660563338692	0	0	0	45.34996324990405	-10.20283356201105	-10.46092899819181	52.05127085882479	0.9084660563338692	0	0	0	-5.305196127618117	-1.487633431939088	5.122749458609425	34.59371172476337	-10.77130936602287	-0.9635071560747867	52.51655970008515	144.0781262040648	0	0	70.14058496318768	-26.98199176110892	2.076176443098094	27.34453100759598	73.5408927703633	0	0
27.97999999999949	-6.413591841487284	-2.661880609558158	28.66026165605872	0	0.9399999999999999	0	45.34982637537586	-10.20255822273761	-10.46052674645841	52.05204910817147	0.9084796393473702	0	0	0	45.34982637537586	-10.20255822273761	-10.46052674645841	52.05204910817147	0.9084796393473702	0	0	0	-5.300262081792206	-1.498774906684439	5.097372584302767	34.54086609111514	-10.77447729942079	-0.9923252417042738	52.52831102757138	144.0991408929335	0	0	70.16846889350958	-27.03850131576168	2.07216324153463	26.87179813842845	73.76382638853308	0	0
27.99999999999949	-6.391864020762748	-2.708328118983705	28.8249022792619	0	0.9399999999999999	0	45.34964689306078	-10.20219449490347	-10.45999660282974	52.05306174865002	0.9084973132578598	0	0	0	45.34964689306078	-10.20219449490347	-10.45999660282974	52.05306174865002	0.9084973132578598	0	0	0	-5.305634643220698	-1.54437190247882	5.051273044455222	34.45745958129879	-10.79585767880717	-1.156229903600191	52.58539996507098	144.1183196397206	0	0	69.81819527554856	-27.47851432248979	1.34294549701965	27.05091864230925	74.42499023454663	0	0
28.01999999999949	-6.36069619094713	-2.736935334377416	28.89216881024566	0	0.9399999999999999	0	45.34955798278735	-10.20201520213253	-10.45973480437751	52.05356535534045	0.9085061028527428	0	0	0	45.34955798278735	-10.20201520213253	-10.45973480437751	52.05356535534045	0.9085061028527428	0	0	0	-5.293820038908642	-1.580007072802853	5.012289270603858	34.42646156432752	-10.72434809793626	-1.214322901662715	52.58119619305106	144.1073807078728	0	0	69.66586081222866	-27.73198847375015	1.112490791155261	26.79672370781469	74.84222553339639	0	0
28.03999999999949	-6.368692287491888	-2.762271075462689	28.97544935391402	0	0.9399999999999999	0	45.34939607619856	-10.20168790326795	-10.45925721427136	52.05447960859373	0.9085220595822098	0	0	0	45.34939607619856	-10.20168790326795	-10.45925721427136	52.05447960859373	0.9085220595822098	0	0	0	-5.314916762441086	-1.594052144008058	4.980005103430926	34.41554586436685	-10.7548298689671	-1.28308958036018	52.60291692406182	144.119284818238	0	0	69.46618403255663	-27.97836365446941	0.7858244556632519	26.58088804830362	75.32596066656728	0	0
28.05999999999949	-6.345739427739638	-2.774676640206661	29.02619163501315	0	0.9399999999999999	0	45.34928381905138	-10.20146254065598	-10.45892753783924	52.05511708207467	0.9085331855933464	0	0	0	45.34928381905138	-10.20146254065598	-10.45892753783924	52.05511708207467	0.9085331855933464	0	0	0	-5.301499149972947	-1.614555119874309	4.96999290613708	34.36527734102931	-10.75385128317016	-1.309063159592254	52.594493748402	144.1707654592608	0	0	69.47326174637739	-28.00406263784964	0.834110655824487	26.12970300071123	75.53525619507653	0	0
28.07999999999949	-6.341599168081344	-2.799641455842154	29.08166248941312	0	0.9399999999999999	0	45.34919084365862	-10.20127544334	-10.45865403063017	52.05564362562299	0.9085423755119196	0	0	0	45.34919084365862	-10.20127544334	-10.45865403063017	52.05564362562299	0.9085423755119196	0	0	0	-5.310363890989543	-1.637686258889955	4.966025107737766	34.34326055633876	-10.76355569913167	-1.333480524992514	52.60378796621311	144.1743725220988	0	0	69.34798879446693	-28.09547213107277	0.8349905485904451	25.76866644739435	75.58428543903599	0	0
28.09999999999949	-6.333919654457452	-2.808413749418327	29.10396326356975	0	0.9399999999999999	0	45.34911575418557	-10.20112440098691	-10.45843317518104	52.05606881328707	0.9085497964365966	1.553343172973366e-51	0	0	45.34911575418557	-10.20112440098691	-10.45843317518104	52.05606881328707	0.9085497964365966	1.553343172973366e-51	0	0	-5.30857872373533	-1.647582632439203	4.954817922096931	34.32290078556762	-10.73527643059999	-1.299574007445684	52.60872442377445	144.1963908000724	0	-5.38806921148701e-36	69.30426863991779	-28.13517118967521	0.7661160455504636	25.51493761105884	75.6840562673006	0	-5.38806921148701e-36
28.11999999999949	-6.330338047725022	-2.83749889180643	29.13970817988181	0	0.9399999999999999	0	45.34900809436158	-10.20090766860599	-10.45811632274261	52.05667767404292	0.9085604230614723	0	0	0	45.34900809436158	-10.20090766860599	-10.45811632274261	52.05667767404292	0.9085604230614723	0	0	0	-5.320410277914478	-1.672864331570419	4.940491185281408	34.32049594351388	-10.69236720128749	-1.286548252191532	52.618465820967	144.2232563012877	0	0	69.3279203667643	-28.19291183808989	0.6628926891229779	25.20065236511584	75.9541844794332	0	0
28.13999999999949	-6.324497157368804	-2.866634419995337	29.17045480291032	0	0.9399999999999999	0	45.34969827987154	-10.20214393573516	-10.46002555813498	52.052714246915	0.9084912482084274	0	0	0	45.34969827987154	-10.20214393573516	-10.46002555813498	52.052714246915	0.9084912482084274	0	0	0	-5.327739743309729	-1.702877085652452	4.932884979604145	34.34714144170059	-10.66519090705331	-1.285872850517604	52.58545596912275	144.2336306757117	0	0	69.4034717033343	-28.21669849641831	0.7201299053771694	24.87433727579042	76.18104215402222	0	0
28.15999999999949	-6.306519130883986	-2.876529910232097	29.1796777505157	0	0.9399999999999999	0	45.34962838691182	-10.20200339199927	-10.459820103892	52.05311100824797	0.9084981730000322	0	0	0	45.34962838691182	-10.20200339199927	-10.459820103892	52.05311100824797	0.9084981730000322	0	0	0	-5.318108749672567	-1.717117549216536	4.906721781608917	34.34905436005488	-10.62238847259218	-1.250759734090562	52.57225152260595	144.2402529314159	0	0	69.32235302249389	-28.29764863084068	0.62233079889332	24.72120866628001	76.32110689941838	0	0
28.17999999999949	-6.301171874889399	-2.882232086457631	29.17240390078848	0	0.9399999999999999	0	45.35109146740086	-10.20332807639132	-10.4627706978277	52.04402863682518	0.9083396557148156	0	0	0	45.35109146740086	-10.20332807639132	-10.4627706978277	52.04402863682518	0.9083396557148156	0	0	0	-5.31247631206241	-1.728693762393464	4.89246018051418	34.34553851088012	-10.5993712032652	-1.212949089620236	52.56369553616992	144.2259232361248	0	0	69.25665904517956	-28.33074240785628	0.5967122084309928	24.48451757111001	76.54418460749653	0	0
28.19999999999949	-6.296678402493417	-2.885265318292789	29.15673913430372	0	0.9399999999999999	0	45.35168959987954	-10.2045470140779	-10.46455177583228	52.04068050603075	0.9082812198086654	0	0	0	45.35168959987954	-10.2045470140779	-10.46455177583228	52.04068050603075	0.9082812198086654	0	0	0	-5.309091012900389	-1.733630008246353	4.875672919832549	34.36003605434458	-10.57300086949475	-1.192085088687638	52.53773044111469	144.3162707108388	0	0	69.23943588571443	-28.3841304749052	0.5910000659702104	24.21887644103134	76.67790457540464	0	0
28.21999999999949	-6.282356609333663	-2.896656883310254	29.12796271724773	0	0.9399999999999999	0	45.35157250564721	-10.20431232491762	-10.46420830468371	52.04135007606912	0.9082929060104075	0	0	0	45.35157250564721	-10.20431232491762	-10.46420830468371	52.04135007606912	0.9082929060104075	0	0	0	-5.303330297659885	-1.747626236728077	4.853212747698997	34.36033646283244	-10.5446282670165	-1.177189794838947	52.53978874034186	144.265386889611	0	0	69.04604451291195	-28.373012765485	0.3439300319878839	23.96492131710952	77.12972162859226	0	0
